<svg width="160" height="21" viewBox="0 0 160 21" fill="none" xmlns="http://www.w3.org/2000/svg">
<g id="TMDB logo" clip-path="url(#clip0_3061_39)">
<g id="Layer 2">
<g id="Layer 1">
<path id="Vector" d="M112.267 20.9113H149.66C151.018 20.9113 152.362 20.6411 153.617 20.1161C154.871 19.5911 156.011 18.8216 156.971 17.8515C157.932 16.8814 158.693 15.7298 159.213 14.4623C159.733 13.1949 160 11.8364 160 10.4645C160.002 9.09114 159.737 7.73078 159.218 6.46127C158.699 5.19176 157.938 4.03802 156.978 3.06606C156.017 2.09411 154.877 1.32302 153.621 0.796908C152.365 0.270799 151.019 -1.97938e-06 149.66 0L112.267 0C110.907 -1.97938e-06 109.561 0.270799 108.306 0.796908C107.05 1.32302 105.909 2.09411 104.949 3.06606C103.989 4.03802 103.227 5.19176 102.709 6.46127C102.19 7.73078 101.924 9.09114 101.927 10.4645C101.927 13.2352 103.016 15.8924 104.955 17.8515C106.894 19.8107 109.524 20.9113 112.267 20.9113ZM5.91032 20.9409H10.4747V4.09122H16.385V0H0V4.07939H5.91032V20.9409ZM22.3539 20.9409H26.9183V4.87753H26.9768L32.2142 20.9291H35.7253L41.1382 4.87753H41.1967V20.9291H45.7611V0H38.8852L34.0868 13.6571H34.0282L29.259 0H22.3539V20.9409ZM52.163 0.0709459H59.0096C60.6036 0.0734211 62.1913 0.271954 63.7378 0.662162C65.1462 0.999716 66.4734 1.61888 67.641 2.48311C68.7703 3.34101 69.6794 4.46018 70.2919 5.74662C70.9842 7.275 71.3186 8.94404 71.2691 10.6242C71.3008 12.172 70.9763 13.7061 70.3211 15.1056C69.7111 16.3649 68.8363 17.4747 67.758 18.3573C66.6543 19.2514 65.3937 19.9273 64.0421 20.3497C62.6136 20.8079 61.1228 21.0374 59.624 21.0296H52.163V0.0709459ZM56.7274 16.7432H59.0681C60.0526 16.75 61.0345 16.6409 61.994 16.4181C62.8502 16.2425 63.6598 15.8859 64.3698 15.3716C65.0475 14.8535 65.5865 14.1728 65.9381 13.391C66.349 12.4454 66.5488 11.4201 66.5233 10.3877C66.5407 9.46263 66.3401 8.54667 65.9381 7.71537C65.5732 6.97869 65.0468 6.33572 64.3991 5.8353C63.7259 5.33021 62.9661 4.95537 62.1579 4.72973C61.2665 4.47791 60.3448 4.35256 59.4192 4.35726H56.7274V16.7432ZM77.8816 0.0709459H85.606C86.5126 0.0713925 87.418 0.136589 88.3154 0.266047C89.1667 0.377469 89.9924 0.637532 90.7556 1.03463C91.4685 1.40836 92.0734 1.96241 92.5111 2.64274C92.9967 3.47292 93.2307 4.42874 93.1841 5.39189C93.2242 6.46442 92.8769 7.51507 92.2069 8.34797C91.523 9.14822 90.6216 9.72795 89.6145 10.0152V10.0507C90.2625 10.1441 90.8911 10.3438 91.4754 10.6419C92.015 10.9156 92.5008 11.2863 92.9091 11.7356C93.3135 12.1857 93.6257 12.7121 93.8278 13.2846C94.0457 13.8909 94.1547 14.5316 94.1497 15.1765C94.1847 16.148 93.9409 17.1089 93.4474 17.9434C92.9884 18.6698 92.367 19.2773 91.6334 19.7171C90.8621 20.1848 90.0169 20.5148 89.1347 20.6926C88.225 20.8896 87.2971 20.9887 86.3668 20.9882H77.8816V0.0709459ZM82.4461 8.43666H85.7523C86.1029 8.43859 86.4525 8.3989 86.7939 8.31841C87.1204 8.24678 87.4316 8.11663 87.7127 7.93412C87.9869 7.75545 88.2139 7.51194 88.3739 7.22466C88.5454 6.8973 88.63 6.53069 88.6197 6.16047C88.6385 5.78421 88.5491 5.41049 88.3622 5.08446C88.1806 4.80509 87.9333 4.57555 87.6425 4.41639C87.3164 4.25097 86.967 4.13731 86.6067 4.07939C86.2499 4.0097 85.8875 3.97407 85.5241 3.97297H82.4226L82.4461 8.43666ZM82.4461 17.098H86.5423C86.9025 17.0989 87.2617 17.0593 87.6132 16.9797C87.9625 16.9075 88.2945 16.7669 88.5904 16.5659C88.8857 16.369 89.132 16.106 89.3102 15.7973C89.5024 15.4448 89.5974 15.0467 89.5853 14.6444C89.6008 14.2201 89.4729 13.803 89.2224 13.462C88.9767 13.1551 88.6588 12.9153 88.2979 12.7644C87.9229 12.6065 87.5296 12.4973 87.1275 12.4392C86.7301 12.3822 86.3293 12.3525 85.9279 12.3505H82.4753L82.4461 17.098Z" fill="url(#paint0_linear_3061_39)"/>
</g>
</g>
</g>
<defs>
<linearGradient id="paint0_linear_3061_39" x1="0" y1="10.5" x2="160" y2="10.5" gradientUnits="userSpaceOnUse">
<stop stop-color="#90CEA1"/>
<stop offset="0.56" stop-color="#3CBEC9"/>
<stop offset="1" stop-color="#00B3E5"/>
</linearGradient>
<clipPath id="clip0_3061_39">
<rect width="160" height="21" fill="white"/>
</clipPath>
</defs>
</svg>
