<svg width="22" height="20" viewBox="0 0 22 20" fill="none" xmlns="http://www.w3.org/2000/svg">
<path d="M21.0786 0.471467C20.7991 0.235707 20.4617 0.0811925 20.1024 0.0243684C19.7431 -0.0324556 19.3753 0.0105367 19.0382 0.14877L1.44269 7.35035C1.0664 7.5073 0.74609 7.77654 0.524276 8.12235C0.302461 8.46816 0.189632 8.87417 0.200763 9.2865C0.211895 9.69883 0.346461 10.098 0.586601 10.431C0.826741 10.764 1.1611 11.015 1.54529 11.1509L5.10448 12.4057L7.08829 19.0562C7.11525 19.145 7.15438 19.2296 7.20452 19.3074C7.21213 19.3194 7.22286 19.3282 7.23096 19.3399C7.28889 19.4218 7.3589 19.4942 7.43855 19.5546C7.4612 19.5721 7.48289 19.5885 7.5071 19.6041C7.60031 19.6667 7.70353 19.7126 7.81219 19.7395L7.82381 19.7405L7.8304 19.7434C7.89573 19.7569 7.96222 19.7637 8.02888 19.7638C8.03529 19.7638 8.04099 19.7607 8.04734 19.7606C8.14794 19.7588 8.24766 19.7412 8.34296 19.7085C8.36513 19.7009 8.38413 19.688 8.40564 19.6788C8.47671 19.649 8.54403 19.6107 8.60622 19.5648C8.65602 19.5222 8.70584 19.4797 8.75568 19.4372L11.4088 16.4677L15.3659 19.5752C15.7142 19.8502 16.143 19.9996 16.5845 20C17.0472 19.9994 17.4955 19.8376 17.8545 19.5417C18.2134 19.2458 18.461 18.8338 18.5559 18.3748L21.7594 2.43298C21.832 2.07418 21.807 1.70212 21.6871 1.35661C21.5671 1.01111 21.3568 0.705146 21.0786 0.471467ZM8.4182 12.7226C8.28206 12.8601 8.189 13.0352 8.15069 13.2261L7.8468 14.7231L7.07697 12.1421L11.0684 10.0351L8.4182 12.7226ZM16.5692 18.0015L11.893 14.3293C11.6974 14.1761 11.4519 14.1032 11.2057 14.1251C10.9594 14.1471 10.7303 14.2624 10.5641 14.4479L9.71436 15.3986L10.0146 13.9191L16.969 6.86918C17.135 6.70113 17.2362 6.47837 17.2541 6.24125C17.2721 6.00412 17.2057 5.76832 17.0669 5.57656C16.9282 5.38479 16.7263 5.24974 16.4978 5.19586C16.2693 5.14199 16.0293 5.17285 15.8213 5.28287L5.84062 10.5508L2.18388 9.19425L19.8359 2.0354L16.5692 18.0015Z" fill="white"/>
</svg>
