<svg width="20" height="20" viewBox="0 0 20 20" fill="none" xmlns="http://www.w3.org/2000/svg">
<path fill-rule="evenodd" clip-rule="evenodd" d="M9.97016 0C4.45692 0 0 4.58331 0 10.2535C0 14.786 2.8557 18.6226 6.81732 19.9805C7.31262 20.0826 7.49405 19.7599 7.49405 19.4885C7.49405 19.2508 7.47772 18.436 7.47772 17.587C4.70427 18.1983 4.12672 16.3647 4.12672 16.3647C3.68101 15.1764 3.0206 14.871 3.0206 14.871C2.11285 14.2429 3.08672 14.2429 3.08672 14.2429C4.09366 14.3108 4.62202 15.2954 4.62202 15.2954C5.51324 16.857 6.94936 16.4158 7.52711 16.1441C7.60956 15.482 7.87385 15.0237 8.15446 14.7691C5.94242 14.5314 3.61509 13.6487 3.61509 9.71017C3.61509 8.58976 4.011 7.67309 4.63835 6.96018C4.53937 6.7056 4.19264 5.65289 4.73753 4.24394C4.73753 4.24394 5.57936 3.97228 7.47752 5.29644C8.29019 5.07199 9.12828 4.95782 9.97016 4.95685C10.812 4.95685 11.6702 5.07581 12.4626 5.29644C14.361 3.97228 15.2028 4.24394 15.2028 4.24394C15.7477 5.65289 15.4008 6.7056 15.3018 6.96018C15.9456 7.67309 16.3252 8.58976 16.3252 9.71017C16.3252 13.6487 13.9979 14.5143 11.7693 14.7691C12.1326 15.0916 12.4461 15.7026 12.4461 16.6703C12.4461 18.0453 12.4297 19.1489 12.4297 19.4883C12.4297 19.7599 12.6114 20.0826 13.1065 19.9808C17.0681 18.6224 19.9238 14.786 19.9238 10.2535C19.9401 4.58331 15.4669 0 9.97016 0Z" fill="white"/>
</svg>
