<svg width="27" height="20" viewBox="0 0 27 20" fill="none" xmlns="http://www.w3.org/2000/svg">
<path d="M24.0284 20H22.275C21.8196 20 21.45 19.6267 21.45 19.1667V7.54222L13.6818 13.1778C13.3936 13.3867 13.0075 13.3867 12.7193 13.1778L4.95 7.54222V19.1667C4.95 19.6267 4.5804 20 4.125 20H2.3716C1.0417 20 0 18.9622 0 17.6389V2.36111C0 1.71556 0.2464 1.11667 0.6941 0.676667C1.1275 0.242222 1.7259 0 2.3716 0H2.8875C3.058 0 3.2252 0.0533333 3.3649 0.153333L13.2 7.19667L23.0351 0.154444C23.1748 0.0533333 23.342 0 23.5125 0H24.0284C24.6708 0 25.2681 0.241111 25.7081 0.678889C26.1525 1.11444 26.4 1.71333 26.4 2.36111V17.6389C26.4 18.9622 25.3583 20 24.0284 20ZM23.1 18.3333H24.0284C24.4464 18.3333 24.75 18.0411 24.75 17.6389V2.36111C24.75 2.16556 24.6818 1.99556 24.5553 1.87111C24.4211 1.73778 24.2352 1.66667 24.0284 1.66667H23.7765L13.6774 8.89778C13.3914 9.10333 13.0097 9.10333 12.7237 8.89778L2.6246 1.66667H2.3716C2.1637 1.66667 1.9789 1.73667 1.8491 1.86556C1.7182 1.99556 1.65 2.16556 1.65 2.36111V17.6389C1.65 18.0411 1.9536 18.3333 2.3716 18.3333H3.3V5.91778C3.3 5.60556 3.4727 5.31889 3.7477 5.17667C4.0249 5.03556 4.3549 5.06 4.6057 5.24111L13.2 11.4744L21.7932 5.24111C22.0451 5.05889 22.3751 5.03444 22.6512 5.17667C22.9273 5.31889 23.1 5.60444 23.1 5.91778V18.3333Z" fill="white"/>
</svg>
